# xmcd
#
# Track frame offsets:
#	150
#	18015
#	37847
#	63872
#	82557
#	103535
#	123072
#	165230
#	185187
#	202617
#	225802
#
# Disc length: 3441 seconds
#
# Revision: 1
# Processed by: cddbd v1.5.1PL0 Copyright (c) Steve Scherf et al.
# Submitted via: audiograbber 1.83.01
#
DISCID=620d6f0b
DTITLE=Dicky Greenwood Band - Take it or leave it
DYEAR=1900
DGENRE=Blues
TTITLE0=I am rich
TTITLE1=Take it or leave it
TTITLE2=Sad sad sad
TTITLE3=Nothing in life is free
TTITLE4=No more
TTITLE5=Face down
TTITLE6=Come closer (dedicated to the memory of drummer and friend Herman Smink
TTITLE6=)
TTITLE7=Jump girl jump
TTITLE8=Help me out
TTITLE9=I'm coming in
TTITLE10=Be good to me
EXTD=
EXTT0=
EXTT1=
EXTT2=
EXTT3=
EXTT4=
EXTT5=
EXTT6=
EXTT7=
EXTT8=
EXTT9=
EXTT10=
PLAYORDER=
